<svg id="Layer_35" enable-background="new 0 0 64 64" height="512" viewBox="0 0 64 64" width="512" xmlns="http://www.w3.org/2000/svg" xmlns:xlink="http://www.w3.org/1999/xlink"><linearGradient id="SVGID_1_" gradientUnits="userSpaceOnUse" x1="32" x2="32" y1="63.001" y2="1"><stop offset="0" stop-color="#9f2fff"/><stop offset="1" stop-color="#0bb1d3"/></linearGradient><path d="m56.494 13.359c1.53-1.285 2.506-3.209 2.506-5.359 0-3.86-3.141-7-7-7s-7 3.14-7 7c0 2.464 1.282 4.629 3.211 5.877-1.197.401-2.347.943-3.426 1.601-1.234-8.28-8.371-14.478-16.785-14.478-8.343 0-15.346 5.99-16.736 14.095-.416-.06-.838-.095-1.264-.095-4.963 0-9 4.038-9 9 0 3.845 2.431 7.229 6 8.487v12.513h-2v13c0 2.757 2.243 5 5 5h26c2.757 0 5-2.243 5-5v-13h-2v-13.586l9-9v11.106l-3.124 2.499c-1.192.954-1.876 2.377-1.876 3.903v19.078c0 1.069.416 2.074 1.172 2.829s1.76 1.171 2.828 1.171h.001c2.206 0 4-1.794 4-4l-.001-16.382 4-2v18.382c0 2.206 1.794 4 4 4s4-1.794 4-4v-26.708-1.292-9c0-4.096-2.754-7.556-6.506-8.641zm-9.494-5.359c0-2.757 2.243-5 5-5s5 2.243 5 5-2.243 5-5 5-5-2.243-5-5zm-19-5c7.545 0 13.938 5.645 14.869 13.117l.074.67c-.451.366-.89.746-1.301 1.157l-4.642 4.642v-11.586h-16v8h-3.54c-1.046-1.557-2.537-2.734-4.254-3.392 1.156-7.238 7.373-12.608 14.794-12.608zm9 32h-28v-6h8.586l2 2h12.9c.651 1.185 1.897 2 3.342 2 .406 0 .796-.08 1.172-.2zm-12-14v8h-4.586l-2-2h-7.414v-6zm8.121 5.465c-.682.682-1.062 1.578-1.104 2.535h-5.017v-10h-4v-6h12v11.586zm-30.121-2.465c0-3.86 3.141-7 7-7 1.846 0 3.598.74 4.891 2h-5.891v8h-2v3.316c-2.404-1.141-4-3.574-4-6.316zm36 34c0 1.654-1.346 3-3 3h-26c-1.654 0-3-1.346-3-3v-11h32zm-30-13v-8h28v8zm52 14c0 1.103-.897 2-2 2s-2-.897-2-2v-19.382l2.131-1.065c.713-.356 1.333-.831 1.869-1.377zm0-28v1.292c0 1.906-1.059 3.62-2.764 4.472l-8.131 4.065c-.681.341-1.105 1.026-1.105 1.789l.001 16.382c0 1.103-.897 2-2 2-.001 0-.001 0-.001 0-.534 0-1.036-.208-1.414-.585-.378-.378-.586-.88-.586-1.415v-19.078c0-.916.41-1.77 1.126-2.343l3.874-3.099v-14.48h-2.414l-10.465 10.465c-.341.34-.811.535-1.293.535-1.008 0-1.828-.82-1.828-1.829 0-.488.19-.948.535-1.293l8.521-8.521c1.625-1.625 3.636-2.867 5.815-3.594 1.521-.506 3.103-.763 4.705-.763h.424c3.859 0 7 3.14 7 7zm-43 26h10c1.654 0 3-1.346 3-3s-1.346-3-3-3h-10c-1.654 0-3 1.346-3 3s1.346 3 3 3zm0-4h10c.552 0 1 .449 1 1s-.448 1-1 1h-10c-.552 0-1-.449-1-1s.448-1 1-1zm-7-22h2v2h-2zm4 0h2v2h-2zm8-6h-10v-2h10zm2-10h2v2h-2zm4 0h4v2h-4zm0 4h4v2h-4zm0 4h4v2h-4z" fill="url(#SVGID_1_)"/></svg>