<svg id="Layer_35" enable-background="new 0 0 64 64" height="512" viewBox="0 0 64 64" width="512" xmlns="http://www.w3.org/2000/svg" xmlns:xlink="http://www.w3.org/1999/xlink"><linearGradient id="SVGID_1_" gradientUnits="userSpaceOnUse" x1="32" x2="32" y1="63" y2="1"><stop offset="0" stop-color="#9f2fff"/><stop offset="1" stop-color="#0bb1d3"/></linearGradient><path d="m42 11c0-3.309-2.691-6-6-6s-6 2.691-6 6 2.691 6 6 6 6-2.691 6-6zm-10 0c0-2.206 1.794-4 4-4s4 1.794 4 4-1.794 4-4 4-4-1.794-4-4zm19 5v1c0 .551.448 1 1 1 1.654 0 3 1.346 3 3v3h-2v2h-2v-2.184c-1.161-.414-2-1.514-2-2.816h2c0 .551.448 1 1 1h1v-1c0-.551-.448-1-1-1-1.654 0-3-1.346-3-3v-3h2v-2h2v2.184c1.161.414 2 1.514 2 2.816h-2c0-.551-.448-1-1-1zm1-8c-2.194 0-4.289.639-6.075 1.827-.583-4.963-4.809-8.827-9.925-8.827-5.514 0-10 4.486-10 10 0 3.763 2.091 7.044 5.17 8.75-.262.211-.504.448-.696.736l-4.931 7.396c-.785 1.177-1.891 2.062-3.158 2.583 1.008-1.212 1.615-2.768 1.615-4.465 0-3.86-3.141-7-7-7s-7 3.14-7 7c0 2.006.853 3.813 2.21 5.09-3.194.425-5.927 2.51-7.15 5.567l-3.817 9.543c-.161.404-.243.829-.243 1.262v.138c0 1.875 1.525 3.4 3.4 3.4 1.378 0 2.609-.822 3.138-2.092l3.462-8.308v6.2l-4.737 11.371c-.175.418-.263.859-.263 1.311v.107c0 1.881 1.53 3.411 3.41 3.411 1.366 0 2.597-.812 3.135-2.067l5.025-11.724 2.43 3.947v6.433c0 1.881 1.53 3.411 3.41 3.411h.109.07 33.411v-34.214c3.556-1.825 6-5.521 6-9.786 0-6.065-4.935-11-11-11zm-24 3c0-4.411 3.589-8 8-8s8 3.589 8 8-3.589 8-8 8-8-3.589-8-8zm-1.713 38.535-.321-.535h5.034v12h-4.314c.197-.431.314-.906.314-1.411v-7.481c0-.906-.246-1.796-.713-2.573zm6.713-.535h1.414l2.586-2.586v14.586h-4zm6-4.586 4-4v20.586h-4zm6-6 4-4v26.586h-4zm-11.414 8.586h-8.82l-.766-1.277v-.723h8.414l15.716-15.716c.808.305 1.658.521 2.543.628zm-2-4h-7.586v-5.208c3.113-.838 5.825-2.85 7.524-5.611l1.476-2.398v1.217c0 1.654 1.346 3 3 3s3-1.346 3-3v-10.461c.717-.226 1.394-.538 2.032-.911.21 3.687 2.236 6.887 5.203 8.723zm3.414-22.051c.329.033.662.051 1 .051s.671-.018 1-.051v10.051c0 .551-.448 1-1 1s-1-.449-1-1zm-23 5.051c0-2.757 2.243-5 5-5s5 2.243 5 5-2.243 5-5 5-5-2.243-5-5zm11.52 35h-.11c-.777 0-1.41-.633-1.41-1.411v-6.433c0-.369-.103-.731-.297-1.048l-3.144-5.108h-2.218l-5.634 13.145c-.223.52-.731.855-1.297.855-.777 0-1.41-.633-1.41-1.411v-.107c0-.187.036-.369.108-.542l4.892-11.74v-10.2h-2.667l-4.641 11.139c-.217.523-.724.861-1.292.861-.772 0-1.4-.628-1.4-1.4v-.138c0-.178.034-.354.101-.52l3.816-9.542c1.069-2.673 3.62-4.4 6.499-4.4h6.303c3.017 0 5.815-1.498 7.488-4.008l4.931-7.396c.201-.302.514-.498.862-.565v4.936l-3.179 5.166c-1.554 2.524-4.112 4.306-7.018 4.887l-.803.16v10.097l2.572 4.288c.28.466.428 1 .428 1.543v7.481c0 .778-.633 1.411-1.41 1.411zm31.48 0h-4v-28.586l2.533-2.533c.5-.07.99-.171 1.467-.307zm-3-33c-4.963 0-9-4.038-9-9 0-.313.032-.621.064-.929 1.499-1.497 2.514-3.47 2.826-5.666 1.668-1.548 3.821-2.405 6.11-2.405 4.963 0 9 4.038 9 9s-4.037 9-9 9z" fill="url(#SVGID_1_)"/></svg>