<svg id="Layer_35" enable-background="new 0 0 64 64" height="512" viewBox="0 0 64 64" width="512" xmlns="http://www.w3.org/2000/svg" xmlns:xlink="http://www.w3.org/1999/xlink"><linearGradient id="SVGID_1_" gradientUnits="userSpaceOnUse" x1="32" x2="32" y1="63" y2="1"><stop offset="0" stop-color="#9f2fff"/><stop offset="1" stop-color="#0bb1d3"/></linearGradient><path d="m23 57v2h-8v-2zm24-42.618 11.236 5.618-11.236 5.618zm2 8 4.764-2.382-4.764-2.382zm14-9.382v14c0 1.654-1.346 3-3 3h-3v11.158c0 3.868-2.763 7.179-6.569 7.87l-3.199.582c-.714.13-1.232.751-1.232 1.477v11.913h-19.057-1.943-19c-2.757 0-5-2.243-5-5v-52c0-2.757 2.243-5 5-5h26c2.757 0 5 2.243 5 5v23.08c.328-.047.66-.08 1-.08 3.859 0 7 3.141 7 7 0 1.958-.81 3.728-2.111 5h5.111c1.103 0 2-.897 2-2v-9h-6c-1.654 0-3-1.346-3-3v-14c0-1.654 1.346-3 3-3h16c1.654 0 3 1.346 3 3zm-24.645 30h-.711l-.614 8.616.97.97.97-.97zm-4.903-1.69c-1.498-1.285-2.452-3.187-2.452-5.31v-25h-24v38h18.426c1.082-3.804 4.158-6.768 8.026-7.69zm4.548-10.31c-2.757 0-5 2.243-5 5s2.243 5 5 5 5-2.243 5-5-2.243-5-5-5zm-25-27c0 .552.448 1 1 1h10c.552 0 1-.448 1-1v-1h-12zm-10 2v47h22v-1c0-.338.021-.67.051-1h-18.051c-1.103 0-2-.897-2-2v-38c0-1.103.897-2 2-2h24c1.103 0 2 .897 2 2v20.111c.574-.587 1.251-1.068 2-1.426v-23.685c0-1.654-1.346-3-3-3h-5v1c0 1.654-1.346 3-3 3h-10c-1.654 0-3-1.346-3-3v-1h-5c-1.654 0-3 1.346-3 3zm22 55v-6h-22v3c0 1.654 1.346 3 3 3zm30-31.5c0-.827-.673-1.5-1.5-1.5s-1.5.673-1.5 1.5v9.5c0 2.206-1.794 4-4 4h-7.64l.671 9.384-3.031 3.03-3.03-3.03.669-9.365c-4.795.191-8.639 4.14-8.639 8.981v9h3v-13h2v13h12v-9.913c0-1.693 1.209-3.142 2.874-3.444l3.199-.581c2.855-.52 4.927-3.002 4.927-5.904zm6-16.5c0-.552-.448-1-1-1h-16c-.552 0-1 .448-1 1v14c0 .552.448 1 1 1h6.351c.564-1.178 1.758-2 3.149-2s2.585.822 3.149 2h3.351c.552 0 1-.448 1-1zm-52 12h10v10h-10zm2 8h6v-6h-6zm-2 4h10v10h-10zm2 8h6v-6h-6zm8-28.586v6.586h-10v-10h10v.586l1.293-1.293 1.414 1.414zm-8 4.586h2.586l-2.293-2.293 1.414-1.414 1.293 1.293 3-3v-.586h-6zm6-2.586-2.586 2.586h2.586zm4 4.586h8v-2h-8zm0-4h8v-2h-8zm8-6h-6v2h6zm-8 14h8v-2h-8zm0 4h8v-2h-8zm0 2v2h2v-2zm4 0v2h2v-2zm-4 6h8v-2h-8zm0 4h4v-2h-4zm0 4h4v-2h-4z" fill="url(#SVGID_1_)"/></svg>