<svg id="Layer_35" enable-background="new 0 0 64 64" height="512" viewBox="0 0 64 64" width="512" xmlns="http://www.w3.org/2000/svg" xmlns:xlink="http://www.w3.org/1999/xlink"><linearGradient id="SVGID_1_" gradientUnits="userSpaceOnUse" x1="32" x2="32" y1="63" y2="1"><stop offset="0" stop-color="#9f2fff"/><stop offset="1" stop-color="#0bb1d3"/></linearGradient><path d="m10.724 33h6l-4.855 8.496-1.736-.992 3.143-5.504h-6l4.855-8.496 1.736.992zm11.276-22c0 2.757-2.243 5-5 5s-5-2.243-5-5 2.243-5 5-5 5 2.243 5 5zm-2 0c0-1.654-1.346-3-3-3s-3 1.346-3 3 1.346 3 3 3 3-1.346 3-3zm43 30v13c0 1.506-.497 2.997-1.4 4.2l-1.6 2.133v2.667h-18v-2.77l-3.304-6.793c-.431-.747-.723-1.624-.837-2.547l-.692-5.533c-.085-.681-.331-1.343-.712-1.914l-1.029-1.544c-.279-.418-.426-.904-.426-1.406 0-1.397 1.138-2.535 2.535-2.535 3.062 0 5.72 2.179 6.32 5.181l.839 4.194c.2-.408.306-.864.306-1.319v-14.099c-.33.048-.662.085-1 .085-1.618 0-3.105-.557-4.292-1.482l-8.995 14.287c2.588 1.809 4.287 4.805 4.287 8.195 0 5.514-4.486 10-10 10s-10-4.486-10-10 4.486-10 10-10c1.409 0 2.749.296 3.966.824l9.318-14.799c-.654-.925-1.088-2.014-1.229-3.193-1.19-.398-2.055-1.51-2.055-2.832 0-1.003.499-1.886 1.256-2.431-.224-.541-.497-1.069-.812-1.582l-13.876 9.606c.907 1.598 1.432 3.441 1.432 5.407 0 6.065-4.935 11-11 11s-11-4.935-11-11 4.935-11 11-11c3.383 0 6.411 1.537 8.43 3.947l13.942-9.651c-.895-1.619-1.356-3.434-1.359-5.296h-6.013v1.632l-1.689.804c-.001.004-.003.008-.005.012l.626 1.763-3.721 3.722-1.764-.626c-.004.002-.008.003-.012.005l-.803 1.688h-5.264l-.804-1.689c-.004-.002-.008-.003-.012-.005l-1.764.626-3.72-3.722.626-1.763c-.002-.004-.004-.008-.005-.012l-1.689-.803v-5.264l1.689-.804c.002-.004.003-.008.005-.012l-.626-1.763 3.721-3.721 1.764.626c.004-.002.008-.003.012-.005l.803-1.689h5.264l.804 1.689c.004.002.008.003.012.005l1.764-.626 3.721 3.721-.626 1.764c.002.004.003.008.005.012l1.688.803v1.632h6.189c.85-4.667 4.784-8.389 9.531-8.927 3.133-.36 6.27.636 8.604 2.72 2.336 2.086 3.676 5.077 3.676 8.207 0 2.319-.717 4.538-2.074 6.417-.491.677-.892 1.393-1.202 2.135.769.544 1.276 1.436 1.276 2.448 0 1.383-.945 2.538-2.22 2.884.139.346.22.721.22 1.116v9.184c.314-.112.648-.184 1-.184.771 0 1.468.301 2 .78.532-.48 1.229-.78 2-.78 1.383 0 2.539.945 2.884 2.22.346-.139.721-.22 1.116-.22 1.654 0 3 1.346 3 3zm-38-31.368-1.281-.609-.139-.389c-.075-.211-.161-.416-.255-.617l-.175-.372.475-1.334-1.936-1.936-1.334.475-.372-.175c-.201-.094-.406-.18-.617-.255l-.389-.139-.609-1.281h-2.736l-.609 1.281-.389.139c-.211.075-.416.161-.617.255l-.372.175-1.334-.475-1.936 1.936.475 1.334-.175.372c-.094.201-.18.406-.255.617l-.139.389-1.281.609v2.736l1.281.609.139.389c.075.211.161.416.255.617l.175.372-.475 1.333 1.936 1.937 1.334-.475.372.175c.201.094.406.18.617.255l.389.139.609 1.281h2.736l.609-1.281.389-.139c.211-.075.416-.161.617-.255l.372-.175 1.334.475 1.936-1.937-.475-1.333.175-.372c.094-.201.18-.406.255-.617l.139-.389 1.281-.609zm-4 24.368c0-4.963-4.037-9-9-9s-9 4.037-9 9 4.037 9 9 9 9-4.037 9-9zm4 27c1.799 0 3.455-.604 4.792-1.609-1.125-1.492-2.895-2.391-4.792-2.391s-3.667.899-4.792 2.391c1.337 1.005 2.993 1.609 4.792 1.609zm0-6c1.654 0 3-1.346 3-3s-1.346-3-3-3-3 1.346-3 3 1.346 3 3 3zm0-10c-4.411 0-8 3.589-8 8 0 1.893.664 3.633 1.768 5.004.792-.986 1.796-1.763 2.931-2.278-1.034-.917-1.699-2.239-1.699-3.726 0-2.757 2.243-5 5-5s5 2.243 5 5c0 1.487-.665 2.809-1.699 3.726 1.135.516 2.139 1.292 2.931 2.278 1.104-1.371 1.768-3.111 1.768-5.004 0-4.411-3.589-8-8-8zm26-22c0-.552-.448-1-1-1h-12c-.552 0-1 .448-1 1s.448 1 1 1h12c.552 0 1-.448 1-1zm-7.074-3h.148l.538-7h-1.225zm-7.276-2.818c.633.893 1.142 1.839 1.528 2.818h3.742l-.539-7h-1.381c-1.654 0-3-1.346-3-3s1.346-3 3-3h.147c1.558 0 2.872 1.217 2.991 2.771l.095 1.229h1.533l.095-1.23c.119-1.553 1.434-2.77 2.992-2.77h.147c1.654 0 3 1.346 3 3s-1.346 3-3 3h-1.381l-.539 7h3.713c.381-.962.884-1.887 1.511-2.755 1.11-1.535 1.696-3.349 1.696-5.245 0-2.561-1.097-5.009-3.008-6.716-1.938-1.73-4.444-2.518-7.048-2.225-4.001.454-7.305 3.673-7.855 7.654-.318 2.305.236 4.601 1.561 6.469zm11.35-6.182c.552 0 1-.448 1-1s-.448-1-1-1h-.147c-.52 0-.957.405-.997.923l-.084 1.077zm-6.855-1.076c-.041-.519-.478-.924-.998-.924h-.147c-.552 0-1 .448-1 1s.448 1 1 1h1.228zm3.855 19.965v-2.889c0-.352.072-.686.184-1h-6.083c.465 2.279 2.484 4 4.899 4 .34 0 .672-.044 1-.111zm16 11.111c0-.552-.448-1-1-1s-1 .448-1 1v2h-2v-2-2c0-.552-.448-1-1-1s-1 .448-1 1v4h-2v-4c0-.552-.448-1-1-1s-1 .448-1 1v4h-2v-4-12c0-.552-.448-1-1-1s-1 .448-1 1v19.014c0 .771-.183 1.545-.527 2.235l-.854 1.709h-2.438l-1.286-6.427c-.415-2.07-2.248-3.573-4.359-3.573-.295 0-.535.239-.535.534 0 .106.031.21.09.298l1.029 1.544c.553.828.909 1.788 1.032 2.775l.692 5.534c.082.659.29 1.284.62 1.859l3.536 7.268v1.23h14v-1.333l2-2.667c.645-.859 1-1.925 1-3z" fill="url(#SVGID_1_)"/></svg>